<svg xmlns="http://www.w3.org/2000/svg" width="20" height="20.001" viewBox="0 0 20 20.001"><defs><style>.a{fill:#fff;}</style></defs><path class="a" d="M11.812,21.926a.422.422,0,0,1-.3-.122.417.417,0,0,1-.114-.377l.591-2.953a.409.409,0,0,1,.114-.214l6.5-6.5a1.256,1.256,0,0,1,1.772,0l1.181,1.181a1.254,1.254,0,0,1,0,1.772l-6.5,6.5a.415.415,0,0,1-.214.114l-2.953.591A.443.443,0,0,1,11.812,21.926Zm.976-3.165-.443,2.215,2.215-.443,6.408-6.408a.418.418,0,0,0,0-.591l-1.181-1.181a.418.418,0,0,0-.591,0Zm1.977,2.157h.008Z" transform="translate(-1.924 -1.924)"/><path class="a" d="M7.936,17.989H2.089A2.087,2.087,0,0,1,0,15.907V5.082A2.087,2.087,0,0,1,2.089,3H3.759a.416.416,0,1,1,0,.833H2.089A1.253,1.253,0,0,0,.835,5.082V15.907a1.253,1.253,0,0,0,1.253,1.249H7.936a.416.416,0,1,1,0,.833Z" transform="translate(0 -0.494)"/><path class="a" d="M15.759,10.519a.418.418,0,0,1-.418-.418V5.089a1.255,1.255,0,0,0-1.253-1.253H12.418a.418.418,0,0,1,0-.835h1.671a2.09,2.09,0,0,1,2.089,2.089V10.1A.418.418,0,0,1,15.759,10.519Z" transform="translate(-2.006 -0.494)"/><path class="a" d="M10.266,5.012H5.253A1.255,1.255,0,0,1,4,3.759V2.089a.418.418,0,0,1,.418-.418H5.713a2.089,2.089,0,0,1,4.094,0H11.1a.418.418,0,0,1,.418.418V3.759A1.255,1.255,0,0,1,10.266,5.012ZM4.835,2.506V3.759a.419.419,0,0,0,.418.418h5.012a.419.419,0,0,0,.418-.418V2.506H9.43a.418.418,0,0,1-.418-.418,1.253,1.253,0,0,0-2.506,0,.418.418,0,0,1-.418.418Z" transform="translate(-0.671)"/><path class="a" d="M11.772,8.835H3.418a.418.418,0,0,1,0-.835h8.354a.418.418,0,0,1,0,.835Z" transform="translate(-0.494 -1.334)"/><path class="a" d="M11.772,11.835H3.418a.418.418,0,0,1,0-.835h8.354a.418.418,0,0,1,0,.835Z" transform="translate(-0.494 -1.834)"/><path class="a" d="M11.772,14.835H3.418a.418.418,0,0,1,0-.835h8.354a.418.418,0,0,1,0,.835Z" transform="translate(-0.494 -2.334)"/></svg>