<svg xmlns="http://www.w3.org/2000/svg" width="80" height="80.001" viewBox="0 0 80 80.001"><defs><style>.a{fill:#57a4ff;}.b{fill:#1e81ce;}</style></defs><g transform="translate(-0.008)"><path class="a" d="M80.226,27.352l-9.8-4.361-4.365-9.807L55.389,14.3,46.709,8,38.024,14.3,27.36,13.184,23,22.987l-9.807,4.365,1.115,10.669L8.012,46.7l6.295,8.685L13.191,66.05l9.8,4.361,4.365,9.807L38.029,79.1l8.68,6.295L55.394,79.1l10.664,1.114,4.361-9.8,9.807-4.365L79.111,55.381l6.3-8.68-6.3-8.685ZM38.969,62.18,28.018,51.228l3.651-3.637,7.3,7.288L60.859,32.989l3.651,3.65Zm0,0" transform="translate(-6.701 -6.701)"/><g transform="translate(0.008)"><path class="b" d="M79.762,39.242l-6.008-8.288,1.065-10.179a1.291,1.291,0,0,0-.759-1.314L64.708,15.3,60.546,5.949a1.3,1.3,0,0,0-1.314-.76L49.052,6.253,40.765.246a1.29,1.29,0,0,0-1.515,0L30.962,6.253,20.782,5.189a1.308,1.308,0,0,0-1.314.759L15.307,15.3,5.955,19.462A1.29,1.29,0,0,0,5.2,20.774l1.064,10.18L.254,39.242a1.29,1.29,0,0,0,0,1.515l6.007,8.287L5.2,59.225a1.29,1.29,0,0,0,.759,1.314L15.307,64.7l4.161,9.352a1.3,1.3,0,0,0,1.314.76l10.18-1.065,8.288,6.008a1.29,1.29,0,0,0,1.515,0l8.287-6.008,10.181,1.065a1.3,1.3,0,0,0,1.314-.759L64.708,64.7l9.351-4.163a1.291,1.291,0,0,0,.759-1.312L73.754,49.046l6.008-8.287A1.29,1.29,0,0,0,79.762,39.242ZM71.375,47.93a1.287,1.287,0,0,0-.239.891l1.017,9.739L63.2,62.544a1.28,1.28,0,0,0-.656.654l-3.981,8.948-9.741-1.018a1.287,1.287,0,0,0-.89.24l-7.929,5.747-7.93-5.747a1.276,1.276,0,0,0-.756-.246.841.841,0,0,0-.129.006L21.45,72.146,17.47,63.2a1.289,1.289,0,0,0-.655-.656L7.861,58.56l1.017-9.739a1.294,1.294,0,0,0-.239-.891L2.892,40l5.747-7.93a1.294,1.294,0,0,0,.239-.891l-1.017-9.74,8.948-3.983a1.279,1.279,0,0,0,.655-.654l3.981-8.948,9.742,1.018a1.3,1.3,0,0,0,.89-.24l7.93-5.747,7.93,5.747a1.3,1.3,0,0,0,.89.24l9.741-1.018L62.55,16.8a1.289,1.289,0,0,0,.656.655l8.948,3.982-1.017,9.74a1.287,1.287,0,0,0,.239.891L77.122,40Zm0,0" transform="translate(-0.008 0)"/><path class="b" d="M159.014,155.346a1.275,1.275,0,0,0-1.819,0l-20.922,21.174-6.372-6.437a1.276,1.276,0,0,0-1.817,0l-3.647,3.669a1.313,1.313,0,0,0,0,1.844l10.923,11.054a1.276,1.276,0,0,0,1.819,0l25.472-25.78a1.314,1.314,0,0,0,0-1.841ZM136.273,183.89l-9.1-9.212,1.819-1.837,6.375,6.438a1.276,1.276,0,0,0,1.818,0L158.1,158.107l1.822,1.844Zm0,0" transform="translate(-103.995 -130.121)"/></g></g></svg>