<svg xmlns="http://www.w3.org/2000/svg" width="80" height="80" viewBox="0 0 80 80"><defs><style>.a{fill:#ce3c32;}</style></defs><g transform="translate(0.002 -0.004)"><g transform="translate(-0.002 0.003)"><path class="a" d="M40,0A40,40,0,1,0,80,40,40.047,40.047,0,0,0,40,0Zm0,74.105A34.105,34.105,0,1,1,74.1,40,34.146,34.146,0,0,1,40,74.108Z" transform="translate(0.002 -0.003)"/><path class="a" d="M104.225,100.027l11.5-11.5a2.97,2.97,0,0,0-4.2-4.2l-11.5,11.5-11.5-11.5a2.97,2.97,0,0,0-4.2,4.2l11.5,11.5-11.5,11.5a2.97,2.97,0,1,0,4.2,4.2l11.5-11.5,11.5,11.5a2.97,2.97,0,1,0,4.2-4.2Z" transform="translate(-60.025 -60.028)"/></g></g></svg>