<svg xmlns="http://www.w3.org/2000/svg" width="50" height="49.998" viewBox="0 0 50 49.998"><defs><style>.a{fill:#8fb566;}</style></defs><g transform="translate(-5.999 -5.968)"><path class="a" d="M70.654,14.756a2.588,2.588,0,0,0-3.662,0L42.941,38.807l-8.522-8.522a2.59,2.59,0,1,0-3.662,3.662L41.109,44.3a2.588,2.588,0,0,0,3.662,0L70.654,18.418a2.588,2.588,0,0,0,0-3.662Z" transform="translate(-15.414 -2.834)"/><path class="a" d="M55.5,25.973a2.273,2.273,0,0,0-4.454.909A20.454,20.454,0,1,1,40.986,13.133a2.279,2.279,0,1,0,2.227-3.977A25,25,0,1,0,56,30.984,25.49,25.49,0,0,0,55.5,25.973Z" transform="translate(0 0)"/></g></svg>