<svg xmlns="http://www.w3.org/2000/svg" width="80" height="79.996" viewBox="0 0 80 79.996"><defs><style>.a{fill:#8fb566;}</style></defs><g transform="translate(-5.999 -5.968)"><path class="a" d="M92.83,15.17a4,4,0,0,0-5.66,0L50,52.34,36.83,39.17a4,4,0,1,0-5.66,5.66l16,16a4,4,0,0,0,5.66,0l40-40a4,4,0,0,0,0-5.66Z" transform="translate(-8.004)"/><path class="a" d="M85.2,37.976a3.637,3.637,0,0,0-7.127,1.454,32.726,32.726,0,1,1-16.09-22,3.646,3.646,0,1,0,3.563-6.363A40,40,0,1,0,86,45.993,40.786,40.786,0,0,0,85.2,37.976Z" transform="translate(0 0)"/></g></svg>