<svg xmlns="http://www.w3.org/2000/svg" width="60" height="60" viewBox="0 0 60 60"><defs><style>.a{fill:#133e62;}</style></defs><path class="a" d="M227.05,259.129a2.493,2.493,0,0,0-1.865.786,2.774,2.774,0,0,0,0,3.815,2.6,2.6,0,0,0,3.73,0,2.773,2.773,0,0,0,0-3.815A2.494,2.494,0,0,0,227.05,259.129Zm0,0" transform="translate(-198.053 -228.675)"/><path class="a" d="M235.988,155.1h2.7l-1.35-3.06Zm0,0" transform="translate(-208.296 -134.194)"/><path class="a" d="M48.828,0H11.172A11.184,11.184,0,0,0,0,11.172v31A11.184,11.184,0,0,0,11.172,53.344H22.615l6.142,6.142a1.758,1.758,0,0,0,2.486,0l6.142-6.142H48.828A11.184,11.184,0,0,0,60,42.172v-31A11.184,11.184,0,0,0,48.828,0ZM16.156,17.435H13.838v6.46h-1.29v-6.46H10.231V16.254h5.925Zm1.4-1.181h1.29v3.312h3.794V16.254h1.29v7.641h-1.29V20.768H18.844v3.127h-1.29ZM21.906,34v3.017H20.594V34l-2.842-4.624h1.41l2.087,3.477,2.088-3.477h1.41Zm9.958,1.962a4.191,4.191,0,0,1-5.728,0,4.012,4.012,0,0,1,0-5.641,4.191,4.191,0,0,1,5.728,0,4.011,4.011,0,0,1,0,5.641Zm-.142-12.064-.765-1.738H27.13l-.765,1.738H24.988l3.367-7.641h1.377L33.1,23.895Zm9.3,9.762a3.4,3.4,0,0,1-.907,2.542,3.489,3.489,0,0,1-4.657,0,3.4,3.4,0,0,1-.907-2.542V29.372h1.29V33.6a2.468,2.468,0,0,0,.525,1.662,1.955,1.955,0,0,0,2.842,0,2.466,2.466,0,0,0,.525-1.662V29.372h1.29Zm.153-9.762h-1.4L35.45,18.32v5.575H34.16V16.254h1.29l4.438,5.706V16.254h1.29Zm7.062,0L45.7,20.55l-1.115,1.2v2.142H43.3V16.254h1.29v3.728l3.5-3.728h1.639L46.654,19.6l3.116,4.3Zm0,0"/></svg>